<svg version="1.1" id="Layer_1" focusable="false" xmlns="http://www.w3.org/2000/svg" xmlns:xlink="http://www.w3.org/1999/xlink"
	 x="0px" y="0px" viewBox="0 0 32 32" style="enable-background:new 0 0 32 32;" xml:space="preserve">
<style type="text/css">
	.st0{fill:#FFFFFF;}
</style>
<path class="st0" d="M0.9,10.8h6.5v20.8H0.9C0.9,31.6,0.9,10.8,0.9,10.8z M4.2,0.4c2.1,0,3.7,1.7,3.7,3.7S6.2,7.9,4.2,7.9
	c-2.1,0-3.7-1.7-3.7-3.7S2.1,0.4,4.2,0.4 M11.4,10.8h6.2v2.8h0.1c0.9-1.6,3-3.4,6.1-3.4c6.5,0,7.7,4.3,7.7,9.9v11.4h-6.5V21.4
	c0-2.4,0-5.5-3.4-5.5c-3.4,0-3.9,2.6-3.9,5.3v10.3h-6.5L11.4,10.8L11.4,10.8z"/>
</svg>
