<svg version="1.1" id="Layer_1" focusable="false" xmlns="http://www.w3.org/2000/svg" xmlns:xlink="http://www.w3.org/1999/xlink"
	 x="0px" y="0px" viewBox="0 0 32 32" style="enable-background:new 0 0 32 32;" xml:space="preserve">
<style type="text/css">
	.st0{fill:#FFFFFF;}
</style>
<path class="st0" d="M16.7,0.5C8.3,0.5,4,6.6,4,11.6c0,3.1,1.2,5.8,3.6,6.8c0.4,0.2,0.8,0,0.9-0.4c0.1-0.3,0.3-1.1,0.4-1.4
	c0.1-0.4,0.1-0.6-0.3-1c-0.7-0.8-1.2-1.9-1.2-3.5c0-4.5,3.4-8.5,8.8-8.5c4.8,0,7.4,2.9,7.4,6.8c0,5.1-2.3,9.5-5.6,9.5
	c-1.9,0-3.3-1.5-2.8-3.4c0.5-2.3,1.6-4.7,1.6-6.3c0-1.5-0.8-2.7-2.4-2.7c-1.9,0-3.4,2-3.4,4.6c0,1.7,0.6,2.8,0.6,2.8l-2.3,9.7
	c-0.7,2.9-0.1,6.4-0.1,6.8c0,0.2,0.3,0.3,0.4,0.1c0.2-0.2,2.4-3,3.2-5.8c0.2-0.8,1.3-4.9,1.3-4.9c0.6,1.2,2.4,2.2,4.3,2.2
	c5.7,0,9.6-5.2,9.6-12.2C28,5.4,23.5,0.5,16.7,0.5z"/>
</svg>
