<svg version="1.1" id="Layer_1" focusable="false" xmlns="http://www.w3.org/2000/svg" xmlns:xlink="http://www.w3.org/1999/xlink"
	 x="0px" y="0px" viewBox="0 0 32 32" style="enable-background:new 0 0 32 32;" xml:space="preserve">
<style type="text/css">
	.st0{fill:#FFFFFF;}
</style>
<path class="st0" d="M31.6,6.3c-1.2,0.5-2.4,0.9-3.7,1c1.3-0.8,2.3-2.1,2.8-3.5c-1.3,0.7-2.6,1.3-4.1,1.6c-1.2-1.3-2.9-2-4.7-2
	c-3.5,0-6.4,2.9-6.4,6.4c0,0.5,0.1,1,0.2,1.5c-5.3-0.3-10-2.8-13.2-6.7C2,5.5,1.7,6.6,1.7,7.7c0,2.2,1.1,4.2,2.9,5.3
	c-1,0-2-0.3-2.9-0.8v0.1c0,3.1,2.2,5.7,5.1,6.3c-0.5,0.1-1.1,0.2-1.7,0.2c-0.4,0-0.8,0-1.2-0.1c0.8,2.6,3.2,4.4,6,4.5
	c-2.3,1.8-5.1,2.7-8,2.7c-0.5,0-1,0-1.5-0.1c2.9,1.9,6.3,2.9,9.8,2.9c11.8,0,18.2-9.8,18.2-18.2c0-0.3,0-0.6,0-0.8
	C29.7,8.7,30.8,7.6,31.6,6.3L31.6,6.3z"/>
</svg>